<svg width="40" height="40" viewBox="0 0 40 40" fill="none" xmlns="http://www.w3.org/2000/svg">
<path d="M5.17775 8.30999C7.31998 9.18332 10.9478 10.1911 14.3444 11.15C17.4111 12.0167 19.5966 13.15 19.5966 15.9044C19.5966 17.1555 19.4455 20.9255 19.3911 25.3855C19.8466 25.27 20.27 25.2155 20.72 25.2555L20.7189 25.1067C20.6766 20.3055 20.52 16.1689 20.5211 14.8411C20.5244 12.0311 22.54 12.3878 25.7066 11.5122C27.1478 11.1133 33.7422 9.63888 35.9389 9.17555C37.7811 8.78666 37.0633 7.99888 36.4878 7.37888C36.45 7.49777 36.3244 7.60332 36.0622 7.68221C34.3844 8.18554 24.1555 10.1667 21.6833 10.8589C19.94 11.3467 17.6933 10.4511 15.0089 9.35999C12.3244 8.26999 5.53109 6.67554 4.18887 6.17221C3.95076 6.08631 3.73452 5.94898 3.55553 5.76999C3.45109 5.82777 3.34442 5.88443 3.24664 5.94888C3.31998 5.94554 3.37998 5.93666 3.45775 5.93554C3.98775 5.92666 3.24109 7.5211 5.17775 8.30999Z" fill="#F5F8FA"/>
<path d="M1.12113 12.08C1.2278 14.9167 1.51669 22.1133 1.25335 25.3478C1.07891 27.4844 1.52002 29.0822 2.36002 30.24C2.58669 29.87 3.07113 29.5644 3.87113 29.4222C8.04002 28.6789 14.8467 26.7722 17.5867 25.9378C18.3134 25.7167 18.8756 25.5178 19.3922 25.3867C19.4467 20.9267 19.5978 17.1567 19.5978 15.9056C19.5978 13.1511 17.4122 12.0178 14.3456 11.1511C10.9478 10.1911 7.32002 9.18334 5.1778 8.31C3.24113 7.52111 3.9878 5.92667 3.4578 5.93445C3.38113 5.93556 3.32113 5.94556 3.24669 5.94778C1.43669 7.14667 1.02113 9.45333 1.12113 12.08Z" fill="#ADD3E0"/>
<path d="M36.8978 30.8889C37.37 30.9967 37.86 31.2322 38.3067 31.5367C38.7933 30.5289 38.6855 29.2233 38.6122 27.7245C38.48 25.0178 38.6778 16.5033 38.8767 12.6089C39.0411 9.37668 37.9633 7.86779 36.4689 7.15668C36.4876 7.19024 36.4991 7.22732 36.5027 7.26557C36.5064 7.30382 36.502 7.34241 36.49 7.3789C37.0644 7.9989 37.7822 8.78668 35.9411 9.17557C33.7433 9.6389 27.15 11.1145 25.7089 11.5122C22.5422 12.3878 20.5267 12.0311 20.5233 14.8411C20.5222 16.1689 20.6789 20.3067 20.7211 25.1067L20.7222 25.2556C21.2444 25.3022 21.8111 25.4711 22.5422 25.84C24.0611 26.6078 34.6344 30.3722 36.8978 30.8889Z" fill="#C1E1EA"/>
<path d="M15.01 9.36C17.6944 10.45 19.94 11.3467 21.6844 10.8589C24.1567 10.1678 34.3855 8.18556 36.0633 7.68223C36.3267 7.60334 36.4522 7.49778 36.4889 7.37889C36.3777 7.26244 36.2717 7.14122 36.1711 7.01556C35.9554 6.92997 35.7346 6.85798 35.51 6.8C32.6722 6.07334 26.1367 4.02778 23.3644 3.03778C21.1678 2.25334 18.3789 2.38111 16.0378 2.90556C13.4378 3.48778 8.16999 4.80111 5.54221 5.15C4.75332 5.25445 4.10221 5.47111 3.55554 5.77111C3.70888 5.92556 3.9111 6.06889 4.18888 6.17334C5.53221 6.67556 12.3255 8.26889 15.01 9.36Z" fill="#D2ECF3"/>
<path opacity="0.5" d="M20.72 25.2556C20.2728 25.222 19.8233 25.2659 19.3911 25.3856L19.3844 25.9333C19.3311 31.1733 19.6 35.5378 19.5255 36.2456C19.4744 36.7322 19.1755 37.15 18.7289 37.4367C19.6411 37.5478 20.5522 37.5345 21.4222 37.39C20.9211 36.9622 20.6333 36.2811 20.5655 35.6033C20.4944 34.8756 20.7611 30.5411 20.72 25.2556Z" fill="#CFE1EA"/>
<path d="M19.5256 36.2456C19.6 35.5378 19.33 31.1744 19.3844 25.9333L19.3911 25.3856C18.8744 25.5156 18.3122 25.7156 17.5856 25.9367C14.8456 26.7711 8.03889 28.6778 3.87 29.4211C3.07111 29.5633 2.58555 29.87 2.35889 30.2389C2.96342 31.0687 3.79327 31.7076 4.75 32.08C7.06 33.0044 12.2744 34.8522 15.5756 36.5022C16.5756 37.0022 17.6511 37.3033 18.7289 37.4356C19.1767 37.15 19.4744 36.7322 19.5256 36.2456ZM35.6422 33.3344C37.1389 32.9667 37.9156 32.3478 38.3067 31.5367C37.86 31.2322 37.37 30.9967 36.8978 30.8889C34.6344 30.3722 24.06 26.6078 22.54 25.84C21.8089 25.4711 21.2422 25.3011 20.72 25.2556C20.7611 30.5422 20.4944 34.8756 20.5667 35.6033C20.6344 36.2822 20.9222 36.9622 21.4233 37.39C21.9736 37.3028 22.5137 37.1606 23.0356 36.9656C25.2789 36.1067 32.1433 34.1922 35.6422 33.3344Z" fill="#9BC2D4"/>
<path d="M8.4122 20.7667C4.06664 24.4578 2.49887 31.5667 2.62775 28.3489C2.73442 25.6922 2.60887 17.8078 2.62109 14.5278C2.63109 11.76 3.08331 9.37888 6.75998 11.0889C9.57998 12.4 14.76 13.4378 17.1866 15.0778C18.7544 16.1378 14.4489 15.6389 8.4122 20.7667Z" fill="#C1E1EA"/>
<path d="M33.5211 17.1545C36.4655 19.1467 37.4866 23.3622 37.4066 21.3556C37.34 19.6989 37.4133 15.8678 37.4066 13.8233C37.4 12.0978 37.6178 10.63 35.1878 11.3289C33.0989 11.9289 29.4944 12.27 27.9811 13.2922C27.0033 13.9522 29.5455 14.4656 33.5211 17.1545Z" fill="#D2ECF3"/>
</svg>
