<svg width="55" height="45" viewBox="0 0 55 45" fill="none" xmlns="http://www.w3.org/2000/svg">
<path d="M52.7473 0C51.5168 0.575391 50.2746 1.15664 49.0441 1.74492C53.9543 15.3492 48.9152 29.1539 39.4465 36.0562C34.548 39.6305 28.4426 41.3531 21.9973 40.2164C15.6926 39.0914 9.09844 35.2242 2.99766 27.8766C1.99805 28.5563 0.998438 29.2359 0 29.9273C1.40039 31.8141 5.30977 36.6539 11.2512 40.3102C18.716 44.9156 28.9699 47.482 41.2863 39.1617C52.2434 31.7555 54.9387 21.7945 54.9855 13.5445C55.0207 7.33359 53.509 2.17617 52.7473 0ZM47.134 2.6625C39.8332 5.04844 34.9582 7.79062 29.8723 10.9898C29.591 11.2242 29.8957 11.9742 30.5637 11.9391L48.8332 12.6656C48.8566 9.41953 48.3176 6.04453 47.134 2.6625ZM42.5637 7.86094L42.9621 9.92344L38.2395 10.8492L37.841 8.78672L42.5637 7.86094ZM30.9855 14.0719C30.1184 14.0836 29.6848 14.8922 30.423 15.8648L44.427 27.7008C46.8176 23.9859 48.3644 19.5445 48.7394 14.775L30.9855 14.0719ZM35.4152 15.5484L39.7629 17.1656L39.0363 19.1344L34.6887 17.5172L35.4152 15.5484ZM21.8918 16.1227C21.7863 16.1227 21.6691 16.1578 21.5402 16.2281C15.9387 19.4977 9.77461 22.7906 4.76133 26.693C8.34023 30.982 12.0246 33.9352 15.6691 35.8219L22.548 17.5172C22.8996 16.9781 22.5012 16.1109 21.8918 16.1227ZM28.4777 17.2242C27.8566 17.2242 27.4582 18.0094 27.5402 18.232L32.7902 37.2516C34.7121 36.5484 36.5285 35.5641 38.2043 34.3453C40.0676 32.9859 41.7551 31.3219 43.1965 29.4352L29.0285 17.4352C28.8293 17.2828 28.6418 17.2242 28.4777 17.2242ZM24.8801 18.0445C24.7395 18.0562 24.5871 18.1617 24.4582 18.4547L17.5793 36.7125C19.1965 37.3805 20.802 37.8492 22.3723 38.1305C25.2902 38.6461 28.1145 38.5289 30.7746 37.8727L25.4543 18.5836C25.3605 18.3258 25.1262 18.0445 24.8801 18.0445ZM17.2746 20.9508L18.8918 22.3102L15.0363 26.8453L13.4191 25.4859L17.2746 20.9508ZM32.5793 22.9781L35.0637 26.0836L33.423 27.3961L30.9387 24.2906L32.5793 22.9781ZM23.3684 25.8141L25.4777 25.8844L25.2902 30.8648L23.1809 30.7945L23.3684 25.8141Z" fill="#FF7700"/>
</svg>
