<svg width="78" height="78" viewBox="0 0 78 78" fill="none" xmlns="http://www.w3.org/2000/svg">
<path d="M28.6406 15.9656C30.4688 11.2125 43.5094 2.4375 43.5094 2.4375C43.5094 2.4375 47.6531 18.1594 45.9469 22.7906C44.2406 27.5438 39 29.7375 34.2469 27.9094C29.3719 25.9594 26.9344 20.5969 28.6406 15.9656Z" fill="#757F3F"/>
<path d="M20.9625 25.35C18.7687 20.8406 21.9375 5.24063 21.9375 5.24063C21.9375 5.24063 35.8312 13.4063 37.9031 18.0375C39.975 22.5469 37.9031 27.9094 33.15 29.9813C28.5187 31.9313 23.0344 29.8594 20.9625 25.35Z" fill="#64892F"/>
<path d="M25.2281 20.9625C20.7187 18.8906 5.2406 21.9375 5.2406 21.9375C5.2406 21.9375 13.4062 35.9531 17.9156 38.1469C22.425 40.2187 27.7875 38.1469 29.7375 33.3937C31.8093 28.6406 29.7375 23.0344 25.2281 20.9625Z" fill="#64892F"/>
<path d="M15.8438 28.7625C11.2125 30.5906 2.4375 43.7531 2.4375 43.7531C2.4375 43.7531 18.0375 47.8969 22.7906 46.1906C27.4219 44.4844 29.7375 39.1219 27.7875 34.3687C25.8375 29.4937 20.5969 27.0562 15.8438 28.7625Z" fill="#64892F"/>
<path d="M62.7656 20.3531C76.7813 34.4906 78.3656 65.0813 71.7844 71.7844C65.0813 78.4875 34.7344 76.7813 20.5969 62.6438C10.2375 52.2844 15.1125 36.5625 25.8375 25.7156C36.6844 14.8688 52.4063 9.99376 62.7656 20.3531Z" fill="#DD2F29"/>
<path d="M51.0657 17.3563C50.4563 17.3563 49.8469 17.6 49.4813 18.0875C48.8719 19.0625 49.3594 20.525 50.8219 21.5C51.5532 21.9875 52.2844 22.2313 52.8938 22.2313C53.5032 22.2313 54.1125 21.9875 54.3563 21.5C54.9657 20.525 54.4782 19.0625 53.0157 18.0875C52.5282 17.6 51.7969 17.3563 51.0657 17.3563ZM54.1125 40.4625C53.7469 40.4625 53.3812 40.5844 53.0156 40.8281C52.1625 41.5594 52.4062 43.1438 53.3812 44.4844C54.1125 45.3375 55.0875 45.825 55.8187 45.825C56.1844 45.825 56.55 45.7031 56.9156 45.4594C57.7687 44.7281 57.525 43.1438 56.55 41.8031C55.8187 40.95 54.8437 40.4625 54.1125 40.4625ZM43.6312 29.9813C43.2656 29.9813 42.9 30.1031 42.5344 30.3469C41.6812 31.0781 41.8031 32.6625 42.9 34.0031C43.6312 34.8563 44.6062 35.3438 45.3375 35.3438C45.7031 35.3438 46.0687 35.2219 46.4344 34.9781C47.2875 34.2469 47.1656 32.6625 46.0687 31.3219C45.3375 30.4688 44.3625 29.9813 43.6312 29.9813ZM63.6187 30.3938C63.375 30.3938 63.1312 30.3938 62.8875 30.5156C61.9125 31.0031 61.7906 32.7094 62.5219 34.1719C63.1312 35.2688 64.1062 36 65.0812 36C65.325 36 65.5687 36 65.8125 35.8781C66.7875 35.3906 66.9094 33.6844 66.1781 32.2219C65.5687 31.125 64.4719 30.3938 63.6187 30.3938ZM67.1531 47.2875H66.7875C65.6906 47.5313 65.0812 49.1156 65.5687 50.7C65.9344 52.1625 66.9094 53.1375 68.0062 53.1375H68.3719C69.4687 52.8938 70.0781 51.3094 69.5906 49.725C69.1031 48.2625 68.1281 47.2875 67.1531 47.2875ZM65.6906 62.4C65.325 62.4 64.8375 62.5219 64.5937 62.7656C63.7406 63.4969 63.9844 65.2031 65.0812 66.4219C65.8125 67.275 66.7875 67.6406 67.5187 67.6406C67.8844 67.6406 68.3719 67.5188 68.6156 67.275C69.4687 66.5438 69.225 64.8375 68.1281 63.6188C67.3969 62.8875 66.5437 62.4 65.6906 62.4ZM36 60.5719C35.3906 60.5719 34.7812 60.8156 34.4156 61.3031C33.8062 62.2781 34.4156 63.7406 35.7562 64.7156C36.4875 65.2031 37.2188 65.4469 37.8281 65.4469C38.4375 65.4469 39.0469 65.2031 39.4125 64.7156C40.0219 63.7406 39.4125 62.2781 38.0719 61.3031C37.4625 60.8156 36.7313 60.5719 36 60.5719ZM24.4968 53.1375C23.7656 53.1375 23.2781 53.3812 22.9125 53.8687C22.3031 54.8437 22.9125 56.3062 24.2531 57.2812C24.9843 57.7687 25.7156 58.0125 26.325 58.0125C26.9343 58.0125 27.5437 57.7687 27.9093 57.2812C28.5187 56.3062 27.9093 54.8437 26.5687 53.8687C25.8375 53.3812 25.1062 53.1375 24.4968 53.1375ZM50.7 66.4219C49.725 66.4219 48.9937 66.7875 48.6281 67.5188C48.2625 68.6156 49.1156 69.9563 50.7 70.5656C51.1875 70.8094 51.7969 70.9313 52.2844 70.9313C53.2594 70.9313 53.9906 70.5656 54.3562 69.8344C54.7219 68.7375 53.8687 67.3969 52.2844 66.7875C51.7969 66.5438 51.1875 66.4219 50.7 66.4219ZM53.5031 54.2344C52.7719 54.2344 52.1625 54.4781 51.7969 55.0875C51.1875 56.0625 51.9187 57.525 53.3812 58.3781C53.9906 58.7438 54.7219 58.9875 55.3312 58.9875C56.0625 58.9875 56.6719 58.7438 57.0375 58.1344C57.6469 57.1594 56.9156 55.6969 55.4531 54.8438C54.7219 54.4781 54.1125 54.2344 53.5031 54.2344ZM40.4625 45.5813C39.8531 45.5813 39.3656 45.825 39.1219 46.1906C38.3906 47.0438 38.8781 48.6281 40.0969 49.725C40.8281 50.3344 41.6812 50.5781 42.4125 50.5781C43.0219 50.5781 43.5094 50.3344 43.7531 49.9688C44.4844 49.1156 43.9969 47.5313 42.7781 46.4344C42.0469 45.9469 41.1937 45.5813 40.4625 45.5813ZM28.6718 26.0813C28.1843 26.0813 27.8187 26.2031 27.4531 26.5688C26.6 27.4219 26.9656 29.0063 28.0625 30.1031C28.7937 30.8344 29.6468 31.2 30.5 31.2C30.9875 31.2 31.3531 31.0781 31.7187 30.7125C32.5718 29.8594 32.2062 28.275 31.1093 27.1781C30.3781 26.4469 29.525 26.0813 28.6718 26.0813ZM22.3031 39.975C21.6937 39.975 21.2062 40.2188 20.8406 40.5844C20.1093 41.4375 20.5968 43.0219 21.9375 44.1188C22.6687 44.7281 23.5218 44.9719 24.1312 44.9719C24.7406 44.9719 25.2281 44.7281 25.5937 44.3625C26.325 43.5094 25.8375 41.925 24.4968 40.8281C23.7656 40.3406 22.9125 39.975 22.3031 39.975Z" fill="#F58786"/>
</svg>
